<?xml version="1.0" encoding="UTF-8" standalone="no"?>
<!-- Created with Inkscape (http://www.inkscape.org/) -->

<svg
   xmlns:dc="http://purl.org/dc/elements/1.1/"
   xmlns:cc="http://creativecommons.org/ns#"
   xmlns:rdf="http://www.w3.org/1999/02/22-rdf-syntax-ns#"
   xmlns:svg="http://www.w3.org/2000/svg"
   xmlns="http://www.w3.org/2000/svg"
   xmlns:sodipodi="http://sodipodi.sourceforge.net/DTD/sodipodi-0.dtd"
   xmlns:inkscape="http://www.inkscape.org/namespaces/inkscape"
   width="210mm"
   height="297mm"
   viewBox="0 0 744.09448819 1052.3622047"
   id="svg2"
   version="1.1"
   inkscape:version="0.91 r13725"
   sodipodi:docname="odsw_logo.svg">
  <defs
     id="defs4" />
  <sodipodi:namedview
     id="base"
     pagecolor="#ffffff"
     bordercolor="#666666"
     borderopacity="1.0"
     inkscape:pageopacity="0.0"
     inkscape:pageshadow="2"
     inkscape:zoom="0.70710678"
     inkscape:cx="397.75199"
     inkscape:cy="943.05067"
     inkscape:document-units="px"
     inkscape:current-layer="layer1"
     showgrid="false"
     inkscape:window-width="1916"
     inkscape:window-height="1041"
     inkscape:window-x="0"
     inkscape:window-y="18"
     inkscape:window-maximized="0" />
  <metadata
     id="metadata7">
    <rdf:RDF>
      <cc:Work
         rdf:about="">
        <dc:format>image/svg+xml</dc:format>
        <dc:type
           rdf:resource="http://purl.org/dc/dcmitype/StillImage" />
        <dc:title></dc:title>
      </cc:Work>
    </rdf:RDF>
  </metadata>
  <g
     inkscape:label="Layer 1"
     inkscape:groupmode="layer"
     id="layer1">
    <path
       style="fill:#0b0f32;fill-opacity:1"
       d="m 135.13454,475.74776 c -7.47913,-2.39487 -18.81065,-17.77406 -25.59969,-34.74398 -4.9953,-12.48627 -10.361305,-32.85025 -12.826705,-48.67727 -1.23157,-7.90625 -2.39608,-14.60246 -2.63444,-15.76189 -1.32111,0.75197 -28.26931,19.56934 -43.60056,27.21663 -22.60889,11.27741 -45.5944196,24.7596 -70.73968,27.22087 -6.45382,0.63171 -14.43025,1.09619 -19.16627,-3.33335 -2.66,-2.48786 -2.9984,-6.99682 -2.5871,-10.61564 1.068,-9.39746 7.37868,-17.55994 12.73286,-25.35645 13.28682,-19.34764 30.4927804,-35.78648 47.38286,-52.0836 17.08503,-16.48521 36.11308,-31.66407 54.36331,-46.01708 -0.59814,-0.51037 -2.7257,-2.60269 -5.35379,-4.78769 -21.85824,-18.173 -41.434669,-38.36968 -59.6101896,-59.88597 -3.8816585,-4.59513 -7.63623524,-9.38973 -10.4816757,-14.68935 -2.5859189,-4.81626 -5.8590543,-11.30254 -5.8648243,-15.31516 -0.008,-5.75847 4.35217,-8.40891 11.95778,-7.26838 15.4550496,2.31763 44.1518696,16.87043 77.4114196,39.25705 l 11.40468,7.66064 0.85643,-5.97701 c 5.95247,-41.54217 14.411115,-67.67929 22.464685,-80.88862 14.76564,-24.2184 27.6325,-28.17151 41.73534,-12.82243 10.77674,11.72906 23.74372,46.92562 28.52301,77.42063 l 0.72064,4.59821 9.64761,-4.3981 c 5.30619,-2.41895 16.39761,-6.92032 24.64761,-10.00303 8.25,-3.08271 16.96875,-6.3831 19.375,-7.33419 14.55407,-5.75265 37.29451,-10.58749 49.76922,-10.58142 20.53971,0.01 25.27018,10.05043 13.33452,28.30252 -4.41811,6.7562 -26.78694,29.1559 -40.60374,40.65977 -22.03931,18.34995 -57.77692,47.04097 -62.91436,50.69478 -3.2096,2.28271 -5.41155,4.37756 -6.62479,5.24716 0.56386,0.67871 5.64428,5.8995 11.57833,11.60055 13.59531,13.0615 48.92431,50.96305 57.80045,62.00927 23.29421,28.98935 17.07798,38.78864 -15.93862,25.12573 -6.6143,-2.73714 -12.09953,-5.65216 -18.04657,-8.68553 -2.31962,-1.18315 -4.60518,-2.43318 -6.875,-3.70927 -5.75865,-3.23749 -8.16694,-4.50533 -17.10444,-10.01141 -15.94098,-9.82069 -14.48982,-9.59719 -16.0524,-10.63915 -0.66204,5.26386 -7.88465,39.50186 -10.1153,47.52591 -3.15785,11.35939 -10.62452,29.37212 -14.55742,35.1186 -4.89123,7.14674 -11.49384,12.63739 -17.05322,14.18124 -5.46601,1.51792 -5.84936,1.50936 -11.35497,-0.25359 z m 15.9238,-17.12814 c 13.90732,-7.09499 25.88596,-32.6757 33.87845,-72.34833 1.35123,-6.70714 0.75193,-3.49287 1.29776,-8.29713 -0.96706,-0.5664 -12.35705,-8.14878 -18.56442,-12.17898 -6.96595,-4.52272 -19.37501,-13.46867 -20.96212,-13.46867 -2.65964,0 -2.29311,-6.67999 0.50549,-9.21269 2.58286,-2.33746 2.28429,-7.27167 -0.58408,-9.6522 -2.21451,-1.83787 -2.32824,-9.88511 -0.13971,-9.88511 2.52311,0 7.05607,3.78266 9.55468,7.63859 0.95491,1.47365 2.01525,2.97072 2.24985,4.2843 l 10.62605,-7.46217 c 5.40813,-3.79787 11.46765,-8.43192 14.36442,-10.34939 2.89678,-1.91748 5.39289,-3.57008 6.39493,-4.37725 -1.97652,-1.7712 -15.54047,-13.31435 -27.73048,-22.75775 -4.06427,-3.14852 -12.44807,-9.5947 -15.08328,-11.54663 l 0.87207,-0.16288 c 2.34033,1.46037 25.91025,18.26192 36.2174,27.38926 l 7.1875,6.36478 -0.0125,-7.94792 c -0.0165,-10.57634 -2.20409,-41.85988 -3.74631,-53.57294 -1.81286,-13.76845 -4.05893,-26.25 -4.72371,-26.25 -1.80637,0 -25.36498,12.30029 -26.76692,13.30641 1.28243,0.56153 4.89,3.50903 8.27029,5.7479 8.02485,5.31513 9.50927,7.70114 6.60069,10.60974 -3.51228,3.51226 -21.26673,3.10629 -27.12168,-0.62017 -2.40625,-1.53149 -5.83868,-2.78664 -7.62765,-2.78921 -3.3016,-0.005 -11.81214,3.81219 -12.28652,7.44485 0.66585,0.51073 3.65889,3.19921 5.53924,4.73798 1.70068,1.39174 5.19171,4.0632 5.19171,4.0632 l 21.63067,-6.8e-4 21.30255,0 0,6.25 0,6.25 -18.125,0 -18.125,0 0.0398,7.1875 c 0.0365,6.59195 0.19183,6.98645 1.875,4.76109 1.00939,-1.33453 1.85314,-3.86578 1.875,-5.625 0.0384,-3.08221 0.1065,-3.1103 1.875,-0.77218 3.21126,4.24567 2.3233,11.6877 -1.97924,16.58802 l -3.8145,4.34446 0.377,28.63429 0.37699,28.63428 -5.3125,-10e-4 -5.31236,-10e-4 0,-12.5 c 0,-6.875 -0.50928,-12.5 -1.13174,-12.5 -0.62245,0 -3.67176,-2.15625 -6.39431,-4.39062 -10.49849,-8.61604 -31.945105,-25.17581 -32.939385,-25.83854 -0.27373,3.29423 0.3521,21.34466 2.83532,43.06166 1.23938,10.83913 2.38516,18.4105 2.85253,21.21258 1.60804,-0.94214 7.296635,-3.97088 10.883355,-6.06431 4.19907,-2.45083 10.94843,-7.06569 12.448,-7.60241 0.11425,-0.0409 -0.0663,-0.26516 0.28121,0.55407 -0.41542,0.63145 -8.19776,5.41853 -12.30916,8.10872 -3.65359,2.39063 -10.087995,6.49901 -10.982935,7.13793 0.25412,2.8727 7.891875,35.16439 13.408815,48.82092 8.25552,20.43552 19.74687,35.30943 28.2838,36.60931 6.66434,1.01475 7.9265,0.85885 12.67999,-1.5662 z M 122.83755,366.8635 c -4.5267,-3.8937 -4.73782,-10.59216 -0.47681,-15.12782 1.63235,-1.73754 3.36677,-3.15917 3.85428,-3.15917 1.83906,0 2.1889,6.90791 0.44813,8.84842 -2.68455,2.99258 -2.18043,8.22255 1.00784,10.4557 2.19625,1.53832 2.34176,1.94588 0.6947,1.94588 -1.14589,0 -3.63355,-1.33335 -5.52814,-2.96301 z m 30.8053,-53.28699 0,-6.25 10,0 10,0 0,6.25 0,6.25 -10,0 -10,0 z M 7.2098054,418.01566 c 14.5875796,-2.98329 28.0943196,-10.07443 41.4330396,-16.69078 15.64129,-7.75848 43.96997,-25.6667 44.98061,-26.83914 -0.12247,-1.36506 -0.90417,-7.73269 -1.88691,-16.60061 -0.98272,-8.86791 -2.16616,-24.15262 -2.62984,-33.96605 -0.46369,-9.81341 -0.43129,-14.82694 -0.4714,-16.73319 -2.88387,-2.25 -5.76179,-4.47002 -8.55941,-6.80718 -2.26176,-1.8895 -6.64669,-5.83039 -6.64669,-5.83039 l -3.801,3.01789 c -7.34999,5.8357 -34.20559,27.90451 -49.75933,43.5103 -11.4928596,11.53132 -25.9902696,28.04612 -32.02731,36.875 -13.5882,19.87206 -16.75693,36.90854 -7.55451,40.61627 4.27827,1.72375 18.1286304,1.24636 26.9227504,-0.55212 z M 259.79738,400.00491 c 1.8211,-3.40276 -0.33019,-9.54338 -6.48713,-18.51678 -6.49974,-9.47301 -31.17015,-35.85575 -47.14578,-52.36873 l -13.20136,-13.64538 c 0,0 -0.12726,13.08745 -0.51034,19.61766 -0.51726,8.81746 -1.51706,17.6007 -2.41283,26.38778 -0.48107,4.71905 -1.38527,11.62694 -1.59045,14.14135 2.33805,1.73467 4.20171,2.72978 9.25584,5.64778 11.24162,6.49036 34.1829,17.0787 41.99139,19.23036 9.20677,2.53695 18.60208,2.30603 20.10064,-0.49404 z m -71.04352,-42.29636 c 1.26752,-14.43808 2.55654,-42.9904 2.3339,-43.41816 -0.66723,0.40899 -7.31407,4.43415 -12.11184,7.94071 -4.79779,3.50656 -11.4112,8.56347 -15.02057,10.96752 -3.60938,2.40404 -4.55167,3.41278 -5.47974,4.10024 0.50823,3.67058 -2.83507,6.5839 -4.97677,9.18216 -2.14171,2.59826 -3.68859,4.88696 -3.4375,5.086 0.66401,0.52638 12.3752,7.99991 18.58151,11.97073 5.98927,3.83195 16.21977,10.64233 18.00373,11.43949 0.43604,-2.29643 1.60014,-11.49198 2.10728,-17.26869 z m -57.61101,-33.71538 c 0,-7.33332 -0.37426,-12.95907 -0.83169,-12.50164 -0.45742,0.45743 -1.44458,4.56834 -2.1937,9.13537 l -1.36201,8.30368 -4.01972,-3.38238 c -8.67361,-7.29835 -7.55409,-18.58168 2.49005,-25.09669 l 5.78133,-3.75 0.0679,-15.07742 0.0644,-14.28126 1.31603,0 c 0,0 -3.11356,-2.2767 -4.61413,-3.48705 -1.63334,-1.31744 -2.94276,-2.44781 -4.77275,-4.1051 -1.45692,1.72358 -0.24445,8.35235 2.52739,11.64649 2.73595,3.25151 3.07968,4.5537 2.35719,8.93045 -0.46518,2.81814 -1.01461,5.31009 -1.22093,5.53767 -0.74055,0.8168 -6.29265,-2.66249 -10.37448,-6.50127 -5.92384,-5.57114 -8.04231,-11.28333 -7.01405,-18.91251 1.09976,-8.15956 3.13643,-11.93485 9.27156,-17.1863 8.39042,-7.18187 20.09516,-9.46556 30.4299,-7.18927 1.96424,0.43263 3.94648,0.78505 5.64756,1.43529 2.44948,-1.35907 5.32462,-3.23113 13.05557,-7.14971 7.71082,-3.90838 14.17274,-7.23383 14.35981,-7.38989 0.86316,-0.72002 -6.42637,-27.81464 -9.0855,-33.77012 -0.92091,-2.0625 -2.66271,-6.28125 -3.87067,-9.375 -4.09714,-10.49333 -13.99075,-23.54266 -20.23272,-26.68622 -8.85348,-4.45877 -16.83681,-2.81091 -24.7581,5.11038 -11.4895,11.4895 -24.571825,46.35642 -27.959615,74.51776 l -1.06772,7.22318 7.160855,4.60641 c 3.84207,2.47151 9.50458,6.32998 9.79104,6.52683 0.28645,0.19685 -0.15325,0.62149 -0.48709,0.9554 -1.16203,-0.63482 -6.22307,-3.49 -9.28682,-5.31677 -2.518685,-1.50177 -6.583625,-4.02911 -7.475115,-4.63836 -0.62802,2.25075 -3.6335,35.70941 -3.68912,37.71629 6.48975,-5.00465 11.857965,-9.10947 18.393735,-13.51845 l 0.19983,1.17977 c -6.39805,4.50988 -12.105615,8.97531 -18.601885,13.85624 l 0.0712,12.7486 -0.3076,12.34394 14.847755,11.5 c 7.97079,6.1736 16.70167,13.07812 19.42593,15.3125 2.72425,2.23437 5.18121,4.0625 5.45991,4.0625 0.27863,0 0.50666,-6 0.50666,-13.33334 z m 91.25,-35.90107 c 42.79325,-34.89456 51.18066,-42.3061 58.91601,-52.06113 8.01043,-10.10191 13.56191,-18.28969 13.1929,-24.82904 -0.36901,-6.53935 -4.38726,-9.71909 -8.82561,-11.86061 -10.51358,-5.07285 -23.49402,-0.83667 -35.00241,1.11935 -17.28043,2.93706 -35.22068,9.1206 -50.16187,15.77796 l -13.93345,6.20834 1.55058,11.50228 c 2.43681,18.07654 4.26694,38.26047 4.27315,47.12728 0.002,4.46875 0.36471,12.73681 0.80352,18.37347 l 0.0339,11.33359 6.52109,-5.00817 c 3.03892,-2.33388 13.35091,-10.11519 22.63216,-17.68332 z m -133.750005,6.04936 0.17678,-11.30377 c -4.52048,3.37444 -9.75185,6.76325 -14.02319,10.45988 0.62716,0.61573 4.55324,4.12434 6.87746,6.13227 2.28063,1.97027 6.6564,5.80292 6.93364,5.80292 0.12099,-0.71875 0.0353,-5.21453 0.0353,-11.0913 z m 0.17888,-12.79019 c 0.42629,-3.26546 0.37972,-3.57031 1.24141,-18.48656 0.58913,-10.19811 1.57486,-20.75679 1.66621,-21.82136 -1.32056,-1.02327 -4.12979,-3.58889 -15.33948,-10.79471 -25.82895,-16.60338 -45.69189,-25.42213 -57.25961,-25.42213 -10.9806496,0 -11.9587096,7.5449 -2.94489,22.71739 2.89668,4.87584 4.29931,7.46018 6.88789,10.88639 9.7295,12.87783 17.50118,20.95989 32.28747,36.08372 9.57823,9.79687 18.1898,17.67864 18.49966,17.98247 5.68832,-4.56211 8.87867,-6.71921 14.96134,-11.14521 z m 68.490745,-30.19864 c 1.4873,-0.94112 1.68533,-1.53752 -0.21556,-2.98085 -1.50518,-1.14287 -4.94869,-1.09654 -7.35526,-0.39947 -2.45282,0.71047 -2.19416,1.4061 -0.46016,2.59375 2.75721,1.88847 5.46897,2.40775 8.03098,0.78657 z"
       id="path4248"
       inkscape:connector-curvature="0"
       sodipodi:nodetypes="ssscaaaaaacsaacsscsssscssssssscsssaascsssscscassssscsscsccsccsscsssccacccccccsscsscccccssscscascacssccssssssscccccccccaacsscacsassassscaacssssacssccsacasscssccccsacscsssssccssssscscccaccccccsssccsczzaacscscsssccccasccsssssasccssssss"
       inkscape:export-xdpi="299"
       inkscape:export-ydpi="299" />
    <text
       xml:space="preserve"
       style="font-style:normal;font-variant:normal;font-weight:normal;font-stretch:normal;font-size:16.25px;font-family:'TeX Gyre Adventor';-inkscape-font-specification:'TeX Gyre Adventor';text-align:start;writing-mode:lr-tb;text-anchor:start;opacity:1;fill:#0b0f32;fill-opacity:1;fill-rule:evenodd;stroke:none;stroke-width:10.10000038;stroke-linecap:butt;stroke-linejoin:miter;stroke-miterlimit:4;stroke-dasharray:none;stroke-dashoffset:0;stroke-opacity:1;"
       x="319.95923"
       y="279.10321"
       id="text4542"
       inkscape:export-xdpi="299"
       inkscape:export-ydpi="299"><tspan
         sodipodi:role="line"
         x="319.95923"
         y="279.10321"
         id="tspan4546"
         style="font-style:normal;font-variant:normal;font-weight:normal;font-stretch:normal;font-size:70px;font-family:Lato;-inkscape-font-specification:Lato;fill:#0b0f32;fill-opacity:1;">Koło Naukowe</tspan><tspan
         sodipodi:role="line"
         x="319.95923"
         y="366.60321"
         id="tspan4550"
         style="font-style:normal;font-variant:normal;font-weight:normal;font-stretch:normal;font-size:70px;font-family:Lato;-inkscape-font-specification:Lato;fill:#0b0f32;fill-opacity:1;">Fizyki Medycznej</tspan></text>
  </g>
</svg>
